{
  "accessors": [
    {
      "bufferView": 2,
      "componentType": 5126,
      "count": 373,
      "max": [
        0.2639999985694885,
        0.21789999306201935,
        4.34630012512207
      ],
      "min": [
        -0.2639999985694885,
        -0.21789999306201935,
        -4.34630012512207
      ],
      "type": "VEC3"
    },
    {
      "bufferView": 2,
      "byteOffset": 4476,
      "componentType": 5126,
      "count": 373,
      "max": [
        0.9999998807907104,
        0.9999994039535522,
        1.0
      ],
      "min": [
        -0.9999992847442627,
        -0.9999998211860657,
        -1.0
      ],
      "type": "VEC3"
    },
    {
      "bufferView": 3,
      "componentType": 5126,
      "count": 373,
      "max": [
        0.9999998807907104,
        0.9999999403953552,
        0.8655021786689758,
        1.0
      ],
      "min": [
        -0.9999998807907104,
        -0.9999997615814209,
        -0.8646875023841858,
        1.0
      ],
      "type": "VEC4"
    },
    {
      "bufferView": 1,
      "componentType": 5126,
      "count": 373,
      "max": [
        0.5228000283241272,
        0.9962000250816345
      ],
      "min": [
        0.005200000014156103,
        0.00279999990016222
      ],
      "type": "VEC2"
    },
    {
      "bufferView": 1,
      "byteOffset": 2984,
      "componentType": 5126,
      "count": 373,
      "max": [
        0.5228000283241272,
        0.9962000250816345
      ],
      "min": [
        0.005200000014156103,
        0.00279999990016222
      ],
      "type": "VEC2"
    },
    {
      "bufferView": 1,
      "byteOffset": 5968,
      "componentType": 5126,
      "count": 373,
      "max": [
        0.5228000283241272,
        0.9962000250816345
      ],
      "min": [
        0.005200000014156103,
        0.00279999990016222
      ],
      "type": "VEC2"
    },
    {
      "bufferView": 0,
      "componentType": 5125,
      "count": 1632,
      "type": "SCALAR"
    },
    {
      "bufferView": 2,
      "byteOffset": 8952,
      "componentType": 5126,
      "count": 373,
      "max": [
        0.2639999985694885,
        0.21789999306201935,
        4.34630012512207
      ],
      "min": [
        -0.2639999985694885,
        -0.21789999306201935,
        -4.34630012512207
      ],
      "type": "VEC3"
    },
    {
      "bufferView": 2,
      "byteOffset": 13428,
      "componentType": 5126,
      "count": 373,
      "max": [
        0.9999998807907104,
        0.9999994039535522,
        1.0
      ],
      "min": [
        -0.9999992847442627,
        -0.9999998211860657,
        -1.0
      ],
      "type": "VEC3"
    },
    {
      "bufferView": 3,
      "byteOffset": 5968,
      "componentType": 5126,
      "count": 373,
      "max": [
        0.9999998807907104,
        0.9999999403953552,
        0.8655021786689758,
        1.0
      ],
      "min": [
        -0.9999998807907104,
        -0.9999997615814209,
        -0.8646875023841858,
        1.0
      ],
      "type": "VEC4"
    },
    {
      "bufferView": 1,
      "byteOffset": 8952,
      "componentType": 5126,
      "count": 373,
      "max": [
        0.5228000283241272,
        0.9962000250816345
      ],
      "min": [
        0.005200000014156103,
        0.00279999990016222
      ],
      "type": "VEC2"
    },
    {
      "bufferView": 1,
      "byteOffset": 11936,
      "componentType": 5126,
      "count": 373,
      "max": [
        0.5228000283241272,
        0.9962000250816345
      ],
      "min": [
        0.005200000014156103,
        0.00279999990016222
      ],
      "type": "VEC2"
    },
    {
      "bufferView": 1,
      "byteOffset": 14920,
      "componentType": 5126,
      "count": 373,
      "max": [
        0.5228000283241272,
        0.9962000250816345
      ],
      "min": [
        0.005200000014156103,
        0.00279999990016222
      ],
      "type": "VEC2"
    },
    {
      "bufferView": 0,
      "byteOffset": 6528,
      "componentType": 5125,
      "count": 1632,
      "type": "SCALAR"
    }
  ],
  "asset": {
    "extras": {
      "author": "plaggy (https://sketchfab.com/plaggy)",
      "license": "CC-BY-4.0 (http://creativecommons.org/licenses/by/4.0/)",
      "source": "https://sketchfab.com/3d-models/cc0-paint-brush-3-5e38a7f8f1dd44cf859b23258c471445",
      "title": "CC0 - Paint Brush 3"
    },
    "generator": "Sketchfab-11.31.0",
    "version": "2.0"
  },
  "bufferViews": [
    {
      "buffer": 0,
      "byteLength": 13056,
      "name": "floatBufferViews",
      "target": 34963
    },
    {
      "buffer": 0,
      "byteLength": 17904,
      "byteOffset": 13056,
      "byteStride": 8,
      "name": "floatBufferViews",
      "target": 34962
    },
    {
      "buffer": 0,
      "byteLength": 17904,
      "byteOffset": 30960,
      "byteStride": 12,
      "name": "floatBufferViews",
      "target": 34962
    },
    {
      "buffer": 0,
      "byteLength": 11936,
      "byteOffset": 48864,
      "byteStride": 16,
      "name": "floatBufferViews",
      "target": 34962
    }
  ],
  "buffers": [
    {
      "byteLength": 60800,
      "uri": "scene.bin"
    }
  ],
  "images": [
    {
      "uri": "textures/PaintBrush3_baseColor.png"
    },
    {
      "uri": "textures/PaintBrush3_metallicRoughness.png"
    },
    {
      "uri": "textures/PaintBrush3_normal.png"
    },
    {
      "uri": "textures/PaintBrush3v2_baseColor.png"
    },
    {
      "uri": "textures/PaintBrush3v2_metallicRoughness.png"
    },
    {
      "uri": "textures/PaintBrush3v2_normal.png"
    }
  ],
  "materials": [
    {
      "name": "PaintBrush3",
      "normalTexture": {
        "index": 2
      },
      "occlusionTexture": {
        "index": 1
      },
      "pbrMetallicRoughness": {
        "baseColorTexture": {
          "index": 0
        },
        "metallicRoughnessTexture": {
          "index": 1
        }
      }
    },
    {
      "name": "PaintBrush3v2",
      "normalTexture": {
        "index": 5
      },
      "occlusionTexture": {
        "index": 4
      },
      "pbrMetallicRoughness": {
        "baseColorTexture": {
          "index": 3
        },
        "metallicRoughnessTexture": {
          "index": 4
        }
      }
    }
  ],
  "meshes": [
    {
      "name": "PaintBrush3_PaintBrush3_0",
      "primitives": [
        {
          "attributes": {
            "NORMAL": 1,
            "POSITION": 0,
            "TANGENT": 2,
            "TEXCOORD_0": 3,
            "TEXCOORD_1": 4,
            "TEXCOORD_2": 5
          },
          "indices": 6,
          "material": 0,
          "mode": 4
        }
      ]
    },
    {
      "name": "PaintBrush3v2_PaintBrush3v2_0",
      "primitives": [
        {
          "attributes": {
            "NORMAL": 8,
            "POSITION": 7,
            "TANGENT": 9,
            "TEXCOORD_0": 10,
            "TEXCOORD_1": 11,
            "TEXCOORD_2": 12
          },
          "indices": 13,
          "material": 1,
          "mode": 4
        }
      ]
    }
  ],
  "nodes": [
    {
      "children": [
        1
      ],
      "matrix": [
        1.0,
        0.0,
        0.0,
        0.0,
        0.0,
        2.220446049250313e-16,
        -1.0,
        0.0,
        0.0,
        1.0,
        2.220446049250313e-16,
        0.0,
        0.0,
        0.0,
        0.0,
        1.0
      ],
      "name": "Sketchfab_model"
    },
    {
      "children": [
        2
      ],
      "matrix": [
        1.0,
        0.0,
        0.0,
        0.0,
        0.0,
        0.0,
        1.0,
        0.0,
        0.0,
        -1.0,
        0.0,
        0.0,
        0.0,
        0.0,
        0.0,
        1.0
      ],
      "name": "d2b000e66c7242f9a9f9004b57ffa909.fbx"
    },
    {
      "children": [
        3,
        5
      ],
      "name": "RootNode"
    },
    {
      "children": [
        4
      ],
      "matrix": [
        0.02210874655937608,
        0.012504531577772485,
        7.049916121170141e-19,
        0.0,
        0.0021713891058620684,
        -0.003839143523666998,
        -0.02501411662965259,
        0.0,
        -0.012314559648255912,
        0.02177286502579322,
        -0.004410663628567784,
        0.0,
        -1.2045502728597057e-07,
        1.4508362937704078e-06,
        6.341806826860516e-14,
        1.0
      ],
      "name": "PaintBrush3"
    },
    {
      "mesh": 0,
      "name": "PaintBrush3_PaintBrush3_0"
    },
    {
      "children": [
        6
      ],
      "matrix": [
        0.024586873956295944,
        0.006375391240029846,
        1.0574874181755211e-18,
        0.0,
        0.001107075106567602,
        -0.004269465995188566,
        -0.025014116599044223,
        0.0,
        -0.006278534715350998,
        0.024213344070134386,
        -0.004410663802156448,
        0.0,
        -1.7474450942245312e-05,
        -1.4505205854220549e-06,
        -0.012525255791842937,
        1.0
      ],
      "name": "PaintBrush3v2"
    },
    {
      "mesh": 1,
      "name": "PaintBrush3v2_PaintBrush3v2_0"
    }
  ],
  "samplers": [
    {
      "magFilter": 9729,
      "minFilter": 9987,
      "wrapS": 10497,
      "wrapT": 10497
    }
  ],
  "scene": 0,
  "scenes": [
    {
      "name": "Sketchfab_Scene",
      "nodes": [
        0
      ]
    }
  ],
  "textures": [
    {
      "sampler": 0,
      "source": 0
    },
    {
      "sampler": 0,
      "source": 1
    },
    {
      "sampler": 0,
      "source": 2
    },
    {
      "sampler": 0,
      "source": 3
    },
    {
      "sampler": 0,
      "source": 4
    },
    {
      "sampler": 0,
      "source": 5
    }
  ]
}
